<svg width="21" height="17" viewBox="0 0 21 17" fill="none" xmlns="http://www.w3.org/2000/svg">
<path d="M20.043 2.998C20.5 4.78 20.5 8.5 20.5 8.5C20.5 8.5 20.5 12.22 20.043 14.002C19.789 14.987 19.046 15.762 18.105 16.024C16.396 16.5 10.5 16.5 10.5 16.5C10.5 16.5 4.607 16.5 2.895 16.024C1.95 15.758 1.208 14.984 0.957 14.002C0.5 12.22 0.5 8.5 0.5 8.5C0.5 8.5 0.5 4.78 0.957 2.998C1.211 2.013 1.954 1.238 2.895 0.976C4.607 0.5 10.5 0.5 10.5 0.5C10.5 0.5 16.396 0.5 18.105 0.976C19.05 1.242 19.792 2.016 20.043 2.998ZM8.5 12L14.5 8.5L8.5 5V12Z" fill="#0B5941"/>
</svg>
