<svg width="53" height="53" viewBox="0 0 53 53" fill="none" xmlns="http://www.w3.org/2000/svg">
<path d="M26.641 26.8412C24.2432 26.8412 22.1905 25.9875 20.4829 24.2799C18.7754 22.5723 17.9216 20.5196 17.9216 18.1218C17.9216 15.7239 18.7754 13.6712 20.4829 11.9637C22.1905 10.2561 24.2432 9.40234 26.641 9.40234C29.0389 9.40234 31.0916 10.2561 32.7991 11.9637C34.5067 13.6712 35.3605 15.7239 35.3605 18.1218C35.3605 20.5196 34.5067 22.5723 32.7991 24.2799C31.0916 25.9875 29.0389 26.8412 26.641 26.8412ZM9.20215 44.2801V38.1765C9.20215 36.9413 9.52041 35.8055 10.1569 34.7694C10.792 33.7347 11.6363 32.9448 12.6899 32.3999C14.9424 31.2736 17.2313 30.4286 19.5565 29.8647C21.8817 29.3023 24.2432 29.0211 26.641 29.0211C29.0389 29.0211 31.4004 29.3023 33.7256 29.8647C36.0508 30.4286 38.3396 31.2736 40.5921 32.3999C41.6457 32.9448 42.4901 33.7347 43.1251 34.7694C43.7617 35.8055 44.0799 36.9413 44.0799 38.1765V44.2801H9.20215Z" fill="white"/>
</svg>
