<svg width="33" height="32" viewBox="0 0 33 32" fill="none" xmlns="http://www.w3.org/2000/svg">
<path d="M11.5723 8.88623V22.3674C11.5723 23.3954 12.7312 24.02 13.6238 23.4604L24.4675 16.7199C24.6574 16.6025 24.8137 16.4402 24.9221 16.2479C25.0305 16.0557 25.0873 15.8398 25.0873 15.6203C25.0873 15.4008 25.0305 15.1849 24.9221 14.9927C24.8137 14.8004 24.6574 14.6381 24.4675 14.5207L13.6238 7.79317C13.4229 7.66622 13.1906 7.5946 12.9514 7.58587C12.7123 7.57713 12.4752 7.6316 12.2651 7.74353C12.055 7.85546 11.8798 8.02071 11.7578 8.22183C11.6359 8.42295 11.5718 8.65249 11.5723 8.88623Z" fill="#0B5941"/>
</svg>
