<svg width="42" height="43" viewBox="0 0 42 43" fill="none" xmlns="http://www.w3.org/2000/svg">
<path d="M13.8677 19.8675C16.1663 19.8675 18.3707 18.9544 19.996 17.3291C21.6213 15.7038 22.5344 13.4994 22.5344 11.2008C22.5344 8.9023 21.6213 6.6979 19.996 5.07259C18.3707 3.44727 16.1663 2.53418 13.8677 2.53418C11.5692 2.53418 9.36477 3.44727 7.73945 5.07259C6.11414 6.6979 5.20104 8.9023 5.20104 11.2008C5.20104 13.4994 6.11414 15.7038 7.73945 17.3291C9.36477 18.9544 11.5692 19.8675 13.8677 19.8675ZM13.8677 19.8675C17.3569 19.8675 20.4058 21.1848 22.5742 23.3741C23.8601 24.6773 24.8219 26.2643 25.3822 28.0073M13.8677 19.8675C6.93438 19.8675 1.73438 25.0675 1.73438 32.0009V40.6675H19.0677M20.801 33.4291L28.0637 38.9342L39.8677 23.3342" stroke="white" stroke-width="1.6"/>
</svg>
