<svg width="24" height="24" viewBox="0 0 24 24" fill="none" xmlns="http://www.w3.org/2000/svg">
<path d="M4.82667 10.212C6.74667 13.9219 9.84 16.9501 13.6133 18.851L16.5467 15.967C16.9067 15.613 17.44 15.495 17.9067 15.6523C19.4 16.1374 21.0133 16.3996 22.6667 16.3996C23.4 16.3996 24 16.9895 24 17.7105V22.2856C24 23.0066 23.4 23.5965 22.6667 23.5965C10.1467 23.5965 0 13.6204 0 1.31092C0 0.589912 0.6 0 1.33333 0H6C6.73333 0 7.33333 0.589912 7.33333 1.31092C7.33333 2.94956 7.6 4.52266 8.09333 5.99088C8.24 6.4497 8.13333 6.96096 7.76 7.32802L4.82667 10.212Z" fill="#0B5941"/>
</svg>
