<svg width="24" height="24" viewBox="0 0 24 24" fill="none" xmlns="http://www.w3.org/2000/svg">
<path d="M22.3216 5.59979L12.9696 0.260031C12.6678 0.08895 12.3362 0 12 0C11.6638 0 11.3322 0.08895 11.0304 0.260031L1.67839 5.59979C1.17482 5.88214 0.750279 6.32275 0.453428 6.87112C0.156577 7.41949 -0.00056944 8.05342 1.55049e-06 8.70026V20.1295C1.55049e-06 22.0413 1.36179 23.5965 3.03589 23.5965H20.9641C22.6382 23.5965 24 22.0413 24 20.1295V8.70026C24.0006 8.05342 23.8434 7.41949 23.5466 6.87112C23.2497 6.32275 22.8252 5.88214 22.3216 5.59979ZM11.8061 2.0319C11.8664 1.99769 11.9328 1.9799 12 1.9799C12.0672 1.9799 12.1336 1.99769 12.1939 2.0319L21.2679 7.21131L12.0536 12.4737C11.9932 12.5079 11.9269 12.5257 11.8596 12.5257C11.7924 12.5257 11.7261 12.5079 11.6657 12.4737L2.59018 7.29365L11.8061 2.0319Z" fill="#0B5941"/>
</svg>
