<svg width="24" height="24" viewBox="0 0 24 24" fill="none" xmlns="http://www.w3.org/2000/svg">
<path d="M23.296 15.7915L23.3306 15.678C24.2231 13.1659 24.2231 10.4305 23.3306 7.91843L23.296 7.80499C22.4539 5.52246 20.9186 3.54956 18.8981 2.15349C16.8776 0.757418 14.4695 0.00564814 12 0C9.5297 0.00238842 7.1201 0.752879 5.09897 2.14939C3.07784 3.5459 1.54329 5.52063 0.704046 7.80499L0.669431 7.91843C-0.223144 10.4305 -0.223144 13.1659 0.669431 15.678L0.704046 15.7915C1.54329 18.0758 3.07784 20.0506 5.09897 21.4471C7.1201 22.8436 9.5297 23.5941 12 23.5965C14.4703 23.5941 16.8799 22.8436 18.901 21.4471C20.9222 20.0506 22.4567 18.0758 23.296 15.7915ZM9.05774 16.336H14.9423C14.351 18.1406 13.3441 19.7867 12 21.1461C10.6559 19.7867 9.64901 18.1406 9.05774 16.336ZM8.57314 14.5209C8.21939 12.7225 8.21939 10.874 8.57314 9.07557H15.4269C15.6025 9.97286 15.6914 10.8845 15.6922 11.7982C15.6919 12.712 15.6031 13.6237 15.4269 14.5209H8.57314ZM1.84633 11.7982C1.8483 10.878 1.97637 9.96219 2.2271 9.07557H6.6924C6.38471 10.8781 6.38471 12.7184 6.6924 14.5209H2.2271C1.97637 13.6343 1.8483 12.7185 1.84633 11.7982ZM14.9423 7.26046H9.05774C9.64901 5.45588 10.6559 3.80981 12 2.4504C13.3441 3.80981 14.351 5.45588 14.9423 7.26046ZM17.3076 9.07557H21.7729C22.2807 10.8563 22.2807 12.7401 21.7729 14.5209H17.3076C17.6153 12.7184 17.6153 10.8781 17.3076 9.07557ZM21.046 7.26046H16.8922C16.337 5.34927 15.3908 3.56965 14.1115 2.03066C15.5887 2.34425 16.9767 2.97593 18.1758 3.88024C19.3749 4.78455 20.3551 5.93899 21.046 7.26046ZM9.8885 2.03066C8.60919 3.56965 7.66296 5.34927 7.10778 7.26046H2.95401C3.64486 5.93899 4.62511 4.78455 5.82419 3.88024C7.02326 2.97593 8.41134 2.34425 9.8885 2.03066ZM2.95401 16.336H7.10778C7.66296 18.2472 8.60919 20.0268 9.8885 21.5658C8.41043 21.2545 7.02134 20.6237 5.82194 19.7191C4.62254 18.8146 3.64289 17.6589 2.95401 16.336ZM14.1115 21.5658C15.3908 20.0268 16.337 18.2472 16.8922 16.336H21.046C20.3571 17.6589 19.3775 18.8146 18.1781 19.7191C16.9787 20.6237 15.5896 21.2545 14.1115 21.5658Z" fill="#0B5941"/>
</svg>
